<?xml version="1.0" encoding="utf-8"?>
<!-- Generator: Adobe Illustrator 18.1.1, SVG Export Plug-In . SVG Version: 6.00 Build 0)  -->
<svg version="1.1" id="Icon" xmlns="http://www.w3.org/2000/svg" xmlns:xlink="http://www.w3.org/1999/xlink" x="0px" y="0px"
	 viewBox="25 0 640 640" enable-background="new 25 0 640 640" xml:space="preserve">
<g>
	<path fill="#808080" d="M665,560c0,44.2-35.8,80-80,80H105c-44.2,0-80-35.8-80-80V80c0-44.2,35.8-80,80-80h480
		c44.2,0,80,35.8,80,80V560z"/>
	<path fill="#FFFFFF" d="M561.4,196.5c-14.9,6.6-31,11.1-47.8,13.1c17.2-10.3,30.4-26.6,36.6-46.1c-16.1,9.5-33.9,16.5-52.9,20.2
		c-15.2-16.2-36.8-26.3-60.8-26.3c-46,0-83.3,37.3-83.3,83.3c0,6.5,0.7,12.9,2.1,19c-69.2-3.5-130.6-36.6-171.7-87
		c-7.2,12.3-11.3,26.6-11.3,41.9c0,28.9,14.7,54.4,37.1,69.3c-13.7-0.4-26.5-4.2-37.7-10.4c0,0.3,0,0.7,0,1.1
		c0,40.4,28.7,74,66.8,81.7c-7,1.9-14.3,2.9-21.9,2.9c-5.4,0-10.6-0.5-15.7-1.5c10.6,33.1,41.4,57.2,77.8,57.8
		c-28.5,22.3-64.4,35.7-103.4,35.7c-6.7,0-13.4-0.4-19.9-1.2c36.9,23.6,80.6,37.4,127.7,37.4c153.2,0,237-126.9,237-237
		c0-3.6-0.1-7.2-0.3-10.8C536.1,227.9,550.3,213.2,561.4,196.5z"/>
</g>
</svg>
