<?xml version="1.0" encoding="utf-8"?>
<!-- Generator: Adobe Illustrator 18.1.1, SVG Export Plug-In . SVG Version: 6.00 Build 0)  -->
<svg class="webicon" role="img" aria-label="Facebook" version="1.1" id="Icon" xmlns="http://www.w3.org/2000/svg" xmlns:xlink="http://www.w3.org/1999/xlink" x="0px" y="0px"
	 viewBox="-332 309 24 24" enable-background="new -332 309 24 24" xml:space="preserve">
<path class="webicon__backgrnd" fill="#808080" d="M-308,330c0,1.7-1.3,3-3,3h-18c-1.7,0-3-1.3-3-3v-18c0-1.7,1.3-3,3-3h18c1.7,0,3,1.3,3,3L-308,330L-308,330z
	"/>
<path fill="#FFFFFF" d="M-312.2,313.7c0,0-1.9,0-3.1,0c-1.8,0-3.9,0.8-3.9,3.4c0,0.9,0,1.8,0,2.8h-2.1v3.4h2.2v9.7h4v-9.7h2.6
	l0.2-3.3h-3c0,0,0-1.5,0-1.9c0-1,1.1-1,1.2-1c0.5,0,1.5,0,1.8,0V313.7L-312.2,313.7L-312.2,313.7z"/>
</svg>
