<?xml version="1.0" encoding="utf-8"?>
<!-- Generator: Adobe Illustrator 18.1.1, SVG Export Plug-In . SVG Version: 6.00 Build 0)  -->
<svg version="1.1" id="Icon" xmlns="http://www.w3.org/2000/svg" xmlns:xlink="http://www.w3.org/1999/xlink" x="0px" y="0px"
	 viewBox="9.9 -12.8 640.2 638.5" enable-background="new 9.9 -12.8 640.2 638.5" xml:space="preserve">
<path fill="#808080" d="M650.1,545.9c0,44.1-35.9,79.8-80,79.8H89.9c-44.2,0-80-35.8-80-79.8V67c0-44.1,35.8-79.8,80-79.8H570
	c44.2,0,80,35.7,80,79.8L650.1,545.9L650.1,545.9z"/>
<path fill="#FFFFFF" d="M539.2,111.9c0,0-49.4,0-82.2,0c-48.8,0-103.1,20.5-103.1,91.1c0.3,24.6,0,48.2,0,74.7h-56.5v89.7h58.2
	v258.3h106.9v-260h70.6l6.4-88.2h-78.8c0,0,0.2-39.3,0-50.7c0-27.9,29.1-26.3,30.8-26.3c13.9,0,40.8,0,47.7,0V111.9L539.2,111.9
	L539.2,111.9z"/>
</svg>
