<?xml version="1.0" encoding="utf-8"?>
<!-- Generator: Adobe Illustrator 18.1.1, SVG Export Plug-In . SVG Version: 6.00 Build 0)  -->
<svg version="1.1" id="Layer_1" xmlns="http://www.w3.org/2000/svg" xmlns:xlink="http://www.w3.org/1999/xlink" x="0px" y="0px"
	 viewBox="0 0 560 75.3" enable-background="new 0 0 560 75.3" xml:space="preserve">
<path fill="#221F1F" d="M165.2,75.1l-5.2-6.8v6.8h-2.3V64.4h2.2l5,6.6v-6.6h2.3v10.8H165.2z"/>
<path fill="#221F1F" d="M173.5,75.1V64.4h8.1v2.1h-5.8v2.2h5.1v2.1h-5.1V73h5.8v2.1H173.5z"/>
<path fill="#221F1F" d="M187.6,75.1V64.4h2.4v10.8H187.6z"/>
<path fill="#221F1F" d="M201.5,75.3c-3.4,0-5.7-2.4-5.7-5.5v0c0-3.1,2.4-5.6,5.6-5.6c1.9,0,3.1,0.5,4.2,1.5l-1.5,1.8
	c-0.8-0.7-1.6-1.1-2.8-1.1c-1.7,0-3.1,1.5-3.1,3.4v0c0,2,1.4,3.4,3.3,3.4c0.9,0,1.6-0.2,2.2-0.6V71h-2.4v-2h4.7v4.7
	C205,74.6,203.5,75.3,201.5,75.3z"/>
<path fill="#221F1F" d="M218.8,75.1v-4.3h-4.4v4.3h-2.4V64.4h2.4v4.3h4.4v-4.3h2.4v10.8H218.8z"/>
<path fill="#221F1F" d="M232.6,75.1h-5.1V64.4h5c2.2,0,3.6,1.1,3.6,2.8v0c0,1.2-0.6,1.9-1.4,2.3c1.2,0.5,2,1.2,2,2.6v0
	C236.6,74.2,235,75.1,232.6,75.1z M233.7,67.6c0-0.7-0.6-1.1-1.6-1.1h-2.3v2.3h2.2C233,68.7,233.7,68.4,233.7,67.6L233.7,67.6z
	 M234.3,71.9c0-0.7-0.5-1.2-1.8-1.2h-2.7v2.4h2.8C233.7,73.1,234.3,72.7,234.3,71.9L234.3,71.9z"/>
<path fill="#221F1F" d="M247.5,75.3c-3.3,0-5.7-2.5-5.7-5.5v0c0-3.1,2.4-5.6,5.7-5.6c3.3,0,5.7,2.5,5.7,5.5v0
	C253.2,72.8,250.8,75.3,247.5,75.3z M250.8,69.8c0-1.8-1.4-3.4-3.3-3.4s-3.2,1.5-3.2,3.4v0c0,1.8,1.4,3.4,3.3,3.4
	S250.8,71.6,250.8,69.8L250.8,69.8z"/>
<path fill="#221F1F" d="M265.6,75.1l-2.3-3.4h-1.9v3.4H259V64.4h4.9c2.5,0,4.1,1.3,4.1,3.6v0c0,1.7-0.9,2.8-2.3,3.3l2.6,3.8H265.6z
	 M265.6,68.1c0-1-0.7-1.5-1.9-1.5h-2.4v3.1h2.4C265,69.6,265.6,69,265.6,68.1L265.6,68.1z"/>
<path fill="#221F1F" d="M280.6,75.1v-4.3h-4.4v4.3h-2.4V64.4h2.4v4.3h4.4v-4.3h2.4v10.8H280.6z"/>
<path fill="#221F1F" d="M294.5,75.3c-3.3,0-5.7-2.5-5.7-5.5v0c0-3.1,2.4-5.6,5.7-5.6s5.7,2.5,5.7,5.5v0
	C300.2,72.8,297.8,75.3,294.5,75.3z M297.7,69.8c0-1.8-1.4-3.4-3.3-3.4c-1.9,0-3.2,1.5-3.2,3.4v0c0,1.8,1.4,3.4,3.3,3.4
	S297.7,71.6,297.7,69.8L297.7,69.8z"/>
<path fill="#221F1F" d="M311.2,75.3c-3.3,0-5.7-2.5-5.7-5.5v0c0-3.1,2.4-5.6,5.7-5.6c3.3,0,5.7,2.5,5.7,5.5v0
	C317,72.8,314.5,75.3,311.2,75.3z M314.5,69.8c0-1.8-1.4-3.4-3.3-3.4s-3.2,1.5-3.2,3.4v0c0,1.8,1.4,3.4,3.3,3.4
	S314.5,71.6,314.5,69.8L314.5,69.8z"/>
<path fill="#221F1F" d="M327,75.1h-4.2V64.4h4.2c3.4,0,5.7,2.3,5.7,5.4v0C332.7,72.8,330.3,75.1,327,75.1z M330.2,69.8
	c0-1.9-1.3-3.2-3.2-3.2h-1.8V73h1.8C328.9,73,330.2,71.7,330.2,69.8L330.2,69.8z"/>
<path fill="#221F1F" d="M351.8,75.3c-3.2,0-5.5-2.4-5.5-5.5v0c0-3.1,2.3-5.6,5.6-5.6c2,0,3.2,0.7,4.2,1.7l-1.5,1.7
	c-0.8-0.8-1.7-1.2-2.8-1.2c-1.8,0-3.1,1.5-3.1,3.4v0c0,1.8,1.3,3.4,3.1,3.4c1.2,0,2-0.5,2.8-1.3l1.5,1.5
	C355.1,74.6,353.9,75.3,351.8,75.3z"/>
<path fill="#221F1F" d="M369.8,75.1l-1-2.4h-4.6l-1,2.4h-2.4l4.6-10.8h2.2l4.6,10.8H369.8z M366.6,67.2l-1.4,3.5h2.9L366.6,67.2z"/>
<path fill="#221F1F" d="M380,66.5v2.3h5.1V71H380v4.2h-2.4V64.4h8.2v2.2H380z"/>
<path fill="#221F1F" d="M391.4,75.1V64.4h8.1v2.1h-5.8v2.2h5.1v2.1h-5.1V73h5.8v2.1H391.4z"/>
<path fill="#010101" d="M133.5,70.6v-1c0-0.2-0.2-0.4-0.4-0.4H0.7c-0.2,0-0.4,0.2-0.4,0.4v1c0,0.2,0.2,0.4,0.4,0.4H133
	C133.3,71,133.5,70.8,133.5,70.6z"/>
<path fill="#010101" d="M558.2,70.6v-1c0-0.2-0.2-0.4-0.4-0.4H424.4c-0.2,0-0.4,0.2-0.4,0.4v1c0,0.2,0.2,0.4,0.4,0.4h133.4
	C558,71,558.2,70.8,558.2,70.6z"/>
<path fill="#010101" d="M91.8,2.1V1c0-0.2-0.2-0.4-0.4-0.4H0.7C0.5,0.6,0.3,0.8,0.3,1v1c0,0.2,0.2,0.4,0.4,0.4h90.6
	C91.6,2.5,91.8,2.3,91.8,2.1z"/>
<path fill="#010101" d="M91.8,44.5v-1c0-0.2-0.2-0.4-0.4-0.4H0.7c-0.2,0-0.4,0.2-0.4,0.4v1c0,0.2,0.2,0.4,0.4,0.4h90.6
	C91.6,44.9,91.8,44.8,91.8,44.5z"/>
<g>
	<path fill="#010101" d="M446.4,0.4h-5.1H414h-2.7c-0.5,0-0.9,0.3-1.1,0.7c-0.2,0.5-0.1,1,0.3,1.3c1.3,0.9,1.2,2.7,1.2,2.7v17.5
		v17.5c0,0,0.1,1.8-1.2,2.7c-0.4,0.3-0.5,0.9-0.3,1.3c0.2,0.5,0.6,0.7,1.1,0.7h2.7h27.4h0c0,0,0,0,0,0h5c0.7,0,1.2-0.5,1.2-1.2v-0.1
		v-3.1v-5.8c0-0.4-0.2-0.7-0.5-1c-0.3-0.2-0.7-0.3-1.1-0.2c-0.5,0.2-0.8,0.5-1.1,0.9c-0.4,0.5-0.9,1.1-2.2,1.2l-19.8,0v-8.1l11.2,0
		l0.1,0c0.6,0,1.3,0.1,1.7,0.9c0.2,0.5,0.8,0.8,1.3,0.7c0.6-0.1,1-0.6,1-1.2V17.3c0-0.6-0.4-1.1-1-1.2c-0.5-0.1-1.1,0.2-1.3,0.7
		c-0.3,0.8-1,0.9-1.7,0.9l-0.1,0c0,0-0.1,0-0.1,0h-11V9.6l19.8,0c1.3,0.1,1.8,0.7,2.2,1.2c0.3,0.4,0.6,0.7,1.1,0.9
		c0.4,0.1,0.8,0,1.1-0.2c0.3-0.2,0.5-0.6,0.5-1V4.8V1.7V1.6C447.6,0.9,447.1,0.4,446.4,0.4z M424.4,38.2H442c2.1,0,2.3,0.9,2.3,1.1
		h-21.4C422.9,39.1,423.1,38.2,424.4,38.2z M415.8,39.9c0,1.4-1,1.7-1.2,1.8V3.2c0.3,0,0.5,0.1,0.7,0.3c0.5,0.5,0.5,1.6,0.5,1.6
		V39.9z M434.3,20.6c0,0.2-0.3,1.1-2.3,1.1h-7.6c-1.4,0-1.5-0.9-1.5-1.1H434.3z M422.9,4.3c0-0.2,0.2-1.1,1.5-1.1H442
		c2,0,2.3,0.9,2.3,1.1H422.9z"/>
	<path fill="#010101" d="M322.4,32.1l-9.8-25.7c-1-2.7,0.3-3.7,0.4-3.8l0,0c0.5-0.3,0.7-0.8,0.6-1.4c-0.1-0.5-0.6-0.9-1.2-0.9h-13.3
		c-0.6,0-1,0.4-1.2,0.9c-0.1,0.5,0.1,1.1,0.5,1.3l0,0c0.2,0.1,1.5,1.1,0.5,3.8l-9.8,25.8c0,0.1-2.9,8.2-5.7,10.5
		c-0.4,0.3-0.5,0.9-0.4,1.3c0.2,0.5,0.6,0.8,1.1,0.8h13.5c0.7,0,1.2-0.5,1.2-1.2c0-0.6-0.4-1-0.9-1.2l-0.1,0c-0.3-0.2-1-0.5-0.4-2.4
		l2.3-5.5h12.8L315,40l0,0c0.7,1.8-0.1,2.2-0.4,2.4l-0.1,0c-0.6,0.1-1,0.7-0.9,1.3c0.1,0.6,0.6,1.1,1.2,1.1h12.6
		c0.5,0,1-0.3,1.1-0.8c0.2-0.5,0-1-0.4-1.3C325.4,40.4,322.5,32.2,322.4,32.1z M290.7,40.5c-0.4,1.1-1.2,1.2-1.5,1.2
		c-0.1,0-0.1,0-0.2,0l14-37.5c0.2,0.1,0.4,0.2,0.5,0.4c0.3,0.5,0,1.4-0.1,1.7L290.7,40.5z M305.9,17.2l3.4,8.7h-6.8L305.9,17.2z
		 M301.3,29.6c0-0.2,0.2-1.1,1.5-1.1h6.2c1.4,0,1.5,0.9,1.5,1.1H301.3z M319.9,41.6c-0.4-0.1-1-0.4-1.4-1.3l-11-27
		c0,0-0.7-1.6,0.2-3l12.6,31.3H319.9z"/>
	<path fill="#010101" d="M266.9,0.4h-5.1h-27.4h-2.7c-0.5,0-0.9,0.3-1.1,0.7c-0.2,0.5-0.1,1,0.3,1.3c1.3,0.9,1.2,2.7,1.2,2.7l0,17.5
		l0,17.5c0,0,0.1,1.8-1.2,2.7c-0.4,0.3-0.5,0.9-0.3,1.3c0.2,0.5,0.6,0.7,1.1,0.7h2.7h27.4h0c0,0,0,0,0,0h5c0.7,0,1.2-0.5,1.2-1.2
		v-0.1v-3.1v-5.8c0-0.4-0.2-0.7-0.5-1c-0.3-0.2-0.7-0.3-1.1-0.2c-0.5,0.2-0.8,0.5-1.1,0.9c-0.4,0.5-0.9,1.1-2.2,1.2l-19.8,0v-8.1
		l11.2,0l0.1,0c0.6,0,1.3,0.1,1.7,0.9c0.2,0.5,0.8,0.8,1.3,0.7c0.6-0.1,1-0.6,1-1.2V17.3c0-0.6-0.4-1.1-1-1.2
		c-0.5-0.1-1.1,0.2-1.3,0.7c-0.3,0.8-1,0.9-1.7,0.9l-0.1,0c0,0-0.1,0-0.1,0h-11V9.6l19.8,0c1.3,0.1,1.8,0.7,2.2,1.2
		c0.3,0.4,0.6,0.7,1.1,0.9c0.4,0.1,0.8,0,1.1-0.2c0.3-0.2,0.5-0.6,0.5-1V4.8V1.7V1.6C268.1,0.9,267.6,0.4,266.9,0.4z M244.9,38.2
		h17.6c2.1,0,2.3,0.9,2.3,1.1h-21.4C243.4,39.1,243.6,38.2,244.9,38.2z M236.3,39.9c0,1.4-1,1.7-1.2,1.8V3.2c0.3,0,0.5,0.1,0.7,0.3
		c0.5,0.5,0.5,1.6,0.5,1.6V39.9z M254.8,20.6c0,0.2-0.3,1.1-2.3,1.1h-7.6c-1.4,0-1.5-0.9-1.5-1.1H254.8z M243.4,4.3
		c0-0.2,0.2-1.1,1.5-1.1h17.6c2,0,2.3,0.9,2.3,1.1H243.4z"/>
	<path fill="#010101" d="M213.6,42.5c0,0-2.6-0.8-3.6-2.9l-4.2-8.7l-1.1-2.7l0.2-0.1c2-1.4,3.5-3.1,4.4-5c3.8-8,0.7-14.7-0.8-16.6
		l0-0.1c0,0,0,0,0-0.1l-0.1-0.1c-4.2-5.7-11.5-6-13-6c-0.2,0-0.3,0-0.4,0h-21.7c-0.5,0-0.9,0.3-1.1,0.7c-0.2,0.5-0.1,1,0.3,1.3
		c1.3,0.9,1.2,2.7,1.2,2.7l0,34c0,0.7-0.1,2.8-1.5,3.4c-0.5,0.2-0.9,0.8-0.8,1.3c0.1,0.6,0.6,1,1.2,1l13.5,0c0.6,0,1.1-0.4,1.2-1
		c0.1-0.6-0.2-1.1-0.8-1.3c-1.3-0.5-1.5-2.5-1.5-3.3l0-8h9.2l4.6,10c0,0,0.4,0.9-0.2,1.2c-0.6,0.3-1,0.7-0.9,1.3
		c0.1,0.6,0.6,1.1,1.2,1.1h14.7c0.6,0,1.1-0.5,1.2-1.1C214.6,43.1,214.2,42.6,213.6,42.5z M200,15.3v1c0,3.1-2.5,5.6-5.6,5.6h-9.7
		V9.7h9.7C197.5,9.7,200,12.2,200,15.3z M186.2,5.5h3.6h3.6c1.3,0,1.5,0.9,1.5,1.1h-5.1h-5.1C184.7,6.4,184.8,5.5,186.2,5.5z
		 M177.5,40c0,1.4-0.9,1.7-1.2,1.8V3.2c0.3,0,0.5,0.1,0.7,0.3c0.4,0.4,0.5,1.3,0.5,1.6V40z M203,41.7c0,0-1,0.2-1.6-1l-4.4-9.6
		c0,0,1.2-0.1,1.8,1.2L203,41.7L203,41.7z M204.3,16.3c0,5.3-4.3,9.6-9.6,9.6h-10c0,0,0.2-1.3,2.2-1.3h7.8c4.6,0,8.3-3.7,8.3-8.3
		v-1.1c0-2.1-0.8-4-2.1-5.5c0.3-0.1,1.5-0.2,2.2,0.8c0.8,1.4,1.2,3,1.2,4.7V16.3z"/>
	<path fill="#010101" d="M151,30.6c-0.5-0.1-1.1,0.1-1.3,0.6c-3,5-9.1,5.3-10.3,5.3l-0.2,0h-0.1c0,0,0,0,0,0c0,0,0,0,0,0
		c-0.1,0-0.3,0-0.5,0c-4,0-6-1.2-6.1-1.3c0,0,0,0,0,0l-0.1,0c-6.4-3.1-4.4-16.9-4.1-18.5l0,0c1.9-7.8,9.8-8,10.1-8h0.2
		c6.3,0,9.6,2.9,11,4.7c0.3,0.4,0.9,0.5,1.3,0.4c0.5-0.2,0.8-0.6,0.8-1.1V1.6c0-0.4-0.2-0.7-0.4-0.9c-0.3-0.2-0.7-0.3-1-0.3
		c-0.7,0.1-1.6,0.2-2.7,0.2c-3,0-6.7-0.4-7.4-0.5C139.3,0,138.4,0,137.6,0c-5.5,0-9,1.2-9.4,1.4c-10.8,3.7-12.6,15.1-12.7,16.3
		c-0.5,3.6-0.3,8.7-0.3,8.9c0.1,8.4,6.7,13.7,7,13.9c5.4,4.5,13.5,4.7,15.1,4.7c0,0,0,0,0,0h0.3c10.2-0.2,13-6.1,13.3-6.8l0,0
		c1.2-2.4,1.3-5,1.2-6.7C151.9,31.1,151.6,30.7,151,30.6z M137.6,42.6h-0.2c0,0,0,0,0,0h0c-0.9,0-8.6-0.1-13.4-4.2
		c-0.1-0.1-6-4.8-6.1-12l0-0.1c0-0.2-0.2-4.9,0.3-8.2c0.1-1.1,1.7-11.1,11.1-14.3c0.3-0.1,3.5-1.2,8.5-1.2c0.8,0,1.6,0,2.3,0.1
		c0.3,0,0.8,0.1,1.4,0.1c0,0-0.1,1.1-2.5,1.1c-0.4,0-0.8,0-1.3,0c-4.8,0-7.8,1-8.1,1.2c-8.7,3-10.1,12.3-10.3,13.3
		c-0.5,3.2-0.3,7.8-0.3,8l0,0.1c0.1,6.6,5.5,11,5.5,11l0.1,0.1c4.1,3.4,10.3,3.8,12.1,3.9c1.5,0.2,1.9,1.1,1.9,1.2
		C138.5,42.6,138.1,42.6,137.6,42.6z"/>
	<path fill="#010101" d="M391.5,42.5c-1.2-0.4-1.5-2.5-1.5-3.3L390,5c0,0,0,0,0,0c0-0.1-0.1-1.3,1.2-2.5c0.3-0.3,0.5-0.9,0.3-1.3
		c-0.2-0.5-0.6-0.7-1.1-0.7h-10.1c-0.5,0-1.1,0.1-1.5,0.9L368,17.6L356.7,0.8c0,0-0.1-0.1-0.1-0.1c0,0-0.1-0.1-0.1-0.1
		c0,0,0,0-0.1,0l0,0c0,0-0.1,0-0.1-0.1c0,0,0,0,0,0l0,0c0,0-0.1,0-0.1,0l-0.1,0c-0.1,0-0.1,0-0.2,0h-10.4c-0.5,0-0.9,0.3-1.1,0.7
		c-0.2,0.5-0.1,1,0.3,1.3c0,0,1.2,1,1.2,2.6v0.1v34c0,0.8-0.3,2.9-1.5,3.3c-0.6,0.2-0.9,0.8-0.8,1.3c0.1,0.6,0.6,1,1.2,1l13.5,0
		c0.6,0,1.1-0.4,1.2-1c0.1-0.6-0.2-1.1-0.8-1.3c-1.2-0.4-1.5-2.5-1.5-3.3l0-19.3l10,14.6c0,0.1,0.1,0.1,0.1,0.1l0,0c0,0,0,0,0.1,0
		c0,0,0.1,0.1,0.2,0.1c0,0,0,0,0.1,0l0.1,0c0,0,0.1,0,0.1,0c0.1,0,0.2,0,0.3,0c0.1,0,0.2,0,0.2,0c0,0,0.1,0,0.1,0l0.2-0.1
		c0,0,0.1,0,0.1-0.1c0,0,0.1,0,0.1-0.1c0,0,0,0,0,0c0.1,0,0.1-0.1,0.1-0.1l0-0.1c0,0,0,0,0,0l9.8-14.4l0,19c0,0.7-0.4,3-1.5,3.4
		c-0.6,0.2-0.9,0.8-0.8,1.3c0.1,0.6,0.6,1,1.2,1h13.5c0.6,0,1.1-0.4,1.2-1C392.4,43.2,392.1,42.7,391.5,42.5z M349.7,40
		c0,1.4-1,1.7-1.2,1.8V3.2c0.3,0,0.5,0.1,0.7,0.3c0.4,0.4,0.5,1.3,0.5,1.6V40z M367.9,30.8l-10.4-15.2c-1.4-2-0.6-3-0.6-3l11,16.1
		C368.7,29.8,368.1,30.6,367.9,30.8z M370.3,22.2c-0.2-0.2-0.8-0.9,0-2.1l10.3-15.6c0,0,0.6-0.9,1.3-1.1c0.2-0.1,0.5,0,0.7,0.1
		c0,0,0,0,0.1,0L370.3,22.2z M383,41.7c-0.2-0.1-1.2-0.4-1.2-1.8V17.4c0,0,0-1.1,0.5-1.6c0.2-0.2,0.4-0.3,0.6-0.3c0,0,0,0,0.1,0
		V41.7z"/>
	<path fill="#010101" d="M559.9,1.1c-0.2-0.5-0.6-0.8-1.1-0.8h-13.5c-0.5,0-1,0.4-1.1,0.9c-0.1,0.5,0.1,1.1,0.6,1.3
		c0.4,0.2,1.3,0.8,0.8,2.2l0,0l-7.3,11l-7.3-11l0,0c-0.5-1.4,0.4-2,0.8-2.2c0.5-0.2,0.8-0.8,0.6-1.3c-0.1-0.5-0.6-0.9-1.1-0.9h-13.1
		c-0.5,0-0.9,0.3-1.1,0.8c-0.2,0.5,0,1,0.4,1.3c2.9,2.3,7.5,10.4,7.6,10.5l7.9,11.7l0,14.6c0,0.8-0.4,2.9-1.5,3.3
		c-0.6,0.2-0.9,0.8-0.8,1.3c0.1,0.6,0.6,1,1.2,1h6.5h6.9c0.6,0,1.1-0.4,1.2-1c0.1-0.6-0.2-1.1-0.8-1.3c-1.2-0.4-1.5-2.5-1.5-3.3
		l0-14.6l7.6-11.7c0.1-0.1,5-8.2,7.9-10.5C560,2.1,560.1,1.6,559.9,1.1z M537.3,39.8c0,1.4-1,1.8-1.2,1.9V24.1L522.4,3.5h0.5
		c0.5,0,1.2,0.2,1.6,0.8l12.7,19.2V39.8z M540.7,19.7L540.7,19.7c-0.1-0.2-0.7-1.2,0-2.2l8.7-13.2c0.2-0.2,0.7-0.7,2-0.8L540.7,19.7
		z"/>
	<path fill="#010101" d="M507.5,42.5c0,0-2.6-0.8-3.6-2.9l-4.2-8.7l-1.1-2.7l0.2-0.1c2-1.4,3.5-3.1,4.4-5c3.8-8,0.7-14.7-0.8-16.6
		l0-0.1c0,0,0,0,0-0.1l-0.1-0.1c-4.2-5.7-11.5-6-13-6c-0.2,0-0.3,0-0.4,0h-21.7c-0.5,0-0.9,0.3-1.1,0.7c-0.2,0.5-0.1,1,0.3,1.3
		c1.3,0.9,1.2,2.7,1.2,2.7l0,34c0,0.7-0.1,2.8-1.5,3.4c-0.6,0.2-0.9,0.8-0.8,1.3c0.1,0.6,0.6,1,1.2,1l13.5,0c0.6,0,1.1-0.4,1.2-1
		c0.1-0.6-0.3-1.1-0.8-1.3c-1.3-0.5-1.5-2.5-1.5-3.3l0-8h9.2l4.6,10c0,0,0.4,0.9-0.2,1.2c-0.6,0.3-1,0.7-0.9,1.3
		c0.1,0.6,0.6,1.1,1.2,1.1h14.7c0.6,0,1.1-0.5,1.2-1.1C508.6,43.1,508.2,42.6,507.5,42.5z M494,15.3v1c0,3.1-2.5,5.6-5.6,5.6h-9.7
		V9.7h9.7C491.5,9.7,494,12.2,494,15.3z M480.2,5.5h3.6h3.6c1.3,0,1.5,0.9,1.5,1.1h-5.1h-5.1C478.7,6.4,478.8,5.5,480.2,5.5z
		 M471.5,40c0,1.4-0.9,1.7-1.2,1.8V3.2c0.3,0,0.5,0.1,0.7,0.3c0.4,0.4,0.5,1.3,0.5,1.6V40z M496.9,41.7c0,0-1,0.2-1.6-1l-4.4-9.6
		c0,0,1.2-0.1,1.8,1.2L496.9,41.7L496.9,41.7z M498.3,16.3c0,5.3-4.3,9.6-9.6,9.6h-10c0,0,0.2-1.3,2.2-1.3h7.8
		c4.6,0,8.3-3.7,8.3-8.3v-1.1c0-2.1-0.8-4-2.1-5.5c0.3-0.1,1.5-0.2,2.2,0.8c0.8,1.4,1.2,3,1.2,4.7V16.3z"/>
</g>
<path fill="#010101" d="M48.9,23.8v-1.1c0-0.3-0.2-0.5-0.5-0.5h-6.6c-0.3,0-0.5,0.2-0.5,0.5v1.1c0,0.3,0.2,0.5,0.5,0.5h6.6
	C48.7,24.3,48.9,24.1,48.9,23.8z"/>
<path fill="#010101" d="M15.1,26.5c0.1,0.7,0,1.8-0.5,2.7l0,0c-0.1,0.3-1.3,2.7-5.5,2.8H9.1h0c-0.6,0-4-0.1-6.2-1.9
	C2.8,30,0.1,27.8,0,24.4c0-0.1-0.1-2.2,0.1-3.6c0.1-0.5,0.8-5.1,5.2-6.7C5.5,14,7,13.5,9.2,13.5c0.4,0,0.7,0,1.1,0
	c0.3,0,1.8,0.2,3,0.2c0.5,0,0.8,0,1.1-0.1c0.1,0,0.3,0,0.4,0.1c0.1,0.1,0.2,0.2,0.2,0.4v4.5c0,0.2-0.1,0.4-0.3,0.5
	c-0.2,0.1-0.4,0-0.5-0.2c-0.6-0.7-1.9-1.9-4.5-1.9H9.5c-0.1,0-3.4,0.1-4.1,3.3l0,0c-0.1,0.6-0.9,6.3,1.7,7.6l0,0c0,0,0,0,0,0
	c0,0,0.9,0.5,2.5,0.5c0.1,0,0.1,0,0.2,0c0,0,0,0,0,0c0,0,0,0,0,0h0H10c0.5,0,3-0.1,4.2-2.2c0.1-0.2,0.3-0.3,0.5-0.2
	C14.9,26.1,15.1,26.2,15.1,26.5z"/>
<path fill="#010101" d="M90.6,16.2L90.6,16.2C90.6,16.1,90.6,16.1,90.6,16.2L90.6,16.2c-1.8-2.4-4.8-2.5-5.4-2.5c-0.1,0-0.1,0-0.2,0
	H81h0h-4.7c-0.2,0-0.4,0.1-0.5,0.3c-0.1,0.2-0.1,0.4,0.1,0.5c0.5,0.4,0.5,1.1,0.5,1.1l0,13.9c0,0.3,0,1.1-0.6,1.4
	c-0.2,0.1-0.4,0.3-0.3,0.5c0,0.2,0.2,0.4,0.5,0.4h5.5c0.2,0,0.4-0.2,0.5-0.4c0-0.2-0.1-0.5-0.3-0.5c-0.5-0.2-0.6-1-0.6-1.3v-3.3l0,0
	v0h4.1c0,0,0.1,0,0.2,0c0.6,0,3.6-0.1,5.3-2.4l0,0c0,0,0,0,0,0l0,0c0.4-0.5,1.1-1.9,1.1-3.8C91.7,18.1,91,16.7,90.6,16.2z M87.2,20
	v0.2c0,1.3-1,2.3-2.3,2.3H81v-5h3.9c1.3,0,2.3,1,2.3,2.3V20z"/>
<path fill="#010101" d="M28.7,32c7,0,8.8-5.8,8.8-9.4c0-3.8-2.4-9-8.8-9h-0.5c-6.4,0-8.8,5.2-8.8,9c0,3.6,1.7,9.4,8.8,9.4H28.7z
	 M28.4,28.4c-2.2,0-4.1-2.1-4.1-5.7c0-3.5,1.8-5.7,4.1-5.7c2.2,0,4.1,2.1,4.1,5.7C32.5,26.3,30.7,28.4,28.4,28.4z"/>
<path fill="#010101" d="M62.1,32c7,0,8.8-5.8,8.8-9.4c0-3.8-2.4-9-8.8-9h-0.5c-6.4,0-8.8,5.2-8.8,9c0,3.6,1.7,9.4,8.8,9.4H62.1z
	 M61.9,28.4c-2.2,0-4.1-2.1-4.1-5.7c0-3.5,1.8-5.7,4.1-5.7c2.2,0,4.1,2.1,4.1,5.7C65.9,26.3,64.1,28.4,61.9,28.4z"/>
</svg>
