<?xml version="1.0" encoding="utf-8"?>
<!-- Generator: Adobe Illustrator 18.1.1, SVG Export Plug-In . SVG Version: 6.00 Build 0)  -->
<svg version="1.1" id="Layer_1" xmlns="http://www.w3.org/2000/svg" xmlns:xlink="http://www.w3.org/1999/xlink" x="0px" y="0px"
	 viewBox="0 0 122 122" enable-background="new 0 0 122 122" xml:space="preserve">
<g>
	<path fill="#C07E2A" d="M115.3,0H6.7C3,0,0,3,0,6.7v108.5c0,3.7,3,6.7,6.7,6.7h58.4V74.8H49.3V56.3h15.9V42.8
		c0-15.8,9.6-24.3,23.7-24.3c6.7,0,12.5,0.5,14.2,0.7v16.5l-9.7,0c-7.6,0-9.1,3.6-9.1,9v11.8h18.2L100,74.8H84.2V122h31.1
		c3.7,0,6.7-3,6.7-6.7V6.7C122,3,119,0,115.3,0"/>
</g>
</svg>
