<?xml version="1.0" encoding="utf-8"?>
<!-- Generator: Adobe Illustrator 18.0.0, SVG Export Plug-In . SVG Version: 6.00 Build 0)  -->
<!DOCTYPE svg PUBLIC "-//W3C//DTD SVG 1.1//EN" "http://www.w3.org/Graphics/SVG/1.1/DTD/svg11.dtd">
<svg version="1.1" id="Layer_1" xmlns="http://www.w3.org/2000/svg" xmlns:xlink="http://www.w3.org/1999/xlink" x="0px" y="0px"
	 viewBox="0 0 73 579" enable-background="new 0 0 73 579" xml:space="preserve">
<g>
	<rect x="0" y="0" fill="#010101" width="73" height="579"/>
	<path fill="#FFFFFF" d="M57.1,60.5v-0.9c0-0.2-0.2-0.4-0.4-0.4H16.5c-0.2,0-0.4,0.2-0.4,0.4v0.9c0,0.2,0.2,0.4,0.4,0.4h40.3
		C57,60.8,57.1,60.7,57.1,60.5z"/>
	<path fill="#FFFFFF" d="M57.1,22.2v-0.9c0-0.2-0.2-0.4-0.4-0.4H16.5c-0.2,0-0.4,0.2-0.4,0.4v0.9c0,0.2,0.2,0.4,0.4,0.4h40.3
		C57,22.6,57.1,22.4,57.1,22.2z"/>
	<g>
		<path fill="#FFFFFF" d="M38.4,41.5v-0.7c0-0.2-0.1-0.3-0.3-0.3h-3.9c-0.1,0-0.3,0.1-0.3,0.3v0.7c0,0.2,0.1,0.3,0.3,0.3h3.9
			C38.3,41.8,38.4,41.6,38.4,41.5z"/>
		<path fill="#FFFFFF" d="M18.5,43c0,0.4,0,1-0.3,1.6l0,0c-0.1,0.2-0.8,1.6-3.2,1.6h-0.1h0c-0.4,0-2.3-0.1-3.6-1.1
			c-0.1,0-1.7-1.3-1.7-3.4c0,0-0.1-1.3,0.1-2.1c0-0.3,0.5-3,3.1-3.9c0.1,0,0.9-0.3,2.3-0.3c0.2,0,0.4,0,0.6,0c0.2,0,1.1,0.1,1.8,0.1
			c0.3,0,0.5,0,0.7,0c0.1,0,0.2,0,0.2,0.1c0.1,0.1,0.1,0.1,0.1,0.2v2.6c0,0.1-0.1,0.2-0.2,0.3c-0.1,0-0.2,0-0.3-0.1
			c-0.3-0.4-1.1-1.1-2.7-1.1h0c-0.1,0-2,0-2.4,1.9l0,0c-0.1,0.4-0.6,3.7,1,4.5l0,0c0,0,0,0,0,0c0,0,0.5,0.3,1.5,0.3c0,0,0.1,0,0.1,0
			h0h0h0h0c0.3,0,1.8-0.1,2.5-1.3c0.1-0.1,0.2-0.2,0.3-0.1C18.4,42.8,18.5,42.9,18.5,43z"/>
		<g>
			<path fill="#FFFFFF" d="M63,37L63,37C63,36.9,63,36.9,63,37L63,37c-1.1-1.4-2.8-1.5-3.2-1.5c0,0-0.1,0-0.1,0h-2.5h0h-2.8
				c-0.1,0-0.2,0.1-0.3,0.2c0,0.1,0,0.3,0.1,0.3c0.3,0.2,0.3,0.6,0.3,0.6v8.2c0,0.2,0,0.7-0.4,0.8C54.1,45.7,54,45.8,54,46
				c0,0.1,0.1,0.2,0.3,0.2h3.3c0.1,0,0.3-0.1,0.3-0.2c0-0.1-0.1-0.3-0.2-0.3c-0.3-0.1-0.4-0.6-0.4-0.8v-1.9l0,0v0h2.4c0,0,0,0,0.1,0
				c0.3,0,2.1-0.1,3.1-1.4l0,0c0,0,0,0,0,0l0,0c0.2-0.3,0.7-1.1,0.6-2.2C63.7,38.1,63.3,37.3,63,37z M61,39.2v0.1
				c0,0.7-0.6,1.4-1.4,1.4h-2.3v-3h2.3c0.7,0,1.4,0.6,1.4,1.4V39.2z"/>
		</g>
		<path fill="#FFFFFF" d="M26.5,46.3c4.2,0,5.2-3.4,5.2-5.6c0-2.3-1.4-5.3-5.2-5.3h-0.3c-3.8,0-5.2,3.1-5.2,5.3c0,2.1,1,5.6,5.2,5.6
			H26.5z M26.3,44.2c-1.3,0-2.4-1.3-2.4-3.3c0-2.1,1.1-3.3,2.4-3.3c1.3,0,2.4,1.3,2.4,3.3C28.7,42.9,27.7,44.2,26.3,44.2z"/>
		<path fill="#FFFFFF" d="M46.2,46.3c4.2,0,5.2-3.4,5.2-5.6c0-2.3-1.4-5.3-5.2-5.3h-0.3c-3.8,0-5.2,3.1-5.2,5.3c0,2.1,1,5.6,5.2,5.6
			H46.2z M46.1,44.2c-1.3,0-2.4-1.3-2.4-3.3c0-2.1,1.1-3.3,2.4-3.3c1.3,0,2.4,1.3,2.4,3.3C48.4,42.9,47.4,44.2,46.1,44.2z"/>
	</g>
	<g>
		<path fill="#FFFFFF" d="M50,108.7c0.1,1.4,0,3.4-0.9,5.2l0,0c-0.2,0.5-2.5,5.2-10.4,5.3h-0.2h0c-1.2,0-7.6-0.2-11.8-3.7
			c-0.2-0.2-5.4-4.2-5.4-10.8c0-0.2-0.2-4.1,0.2-6.9c0.1-1,1.5-9.8,10-12.8c0.3-0.1,3-1.1,7.4-1.1c0.7,0,1.4,0,2,0.1
			c0.6,0.1,3.4,0.4,5.8,0.4c0.9,0,1.6,0,2.1-0.1c0.3,0,0.6,0,0.8,0.2c0.2,0.2,0.3,0.4,0.3,0.7v8.5c0,0.4-0.3,0.8-0.6,0.9
			c-0.4,0.1-0.8,0-1-0.3c-1.1-1.4-3.7-3.7-8.6-3.7h-0.1c-0.3,0-6.4,0.1-7.9,6.3l0,0c-0.2,1.2-1.8,12,3.2,14.5l0.1,0c0,0,0,0,0,0
			c0.1,0,1.7,1,4.8,1c0.1,0,0.3,0,0.4,0c0,0,0,0,0,0h0H40l0.1,0c0.9,0,5.8-0.2,8.1-4.1c0.2-0.3,0.6-0.5,1-0.4
			C49.7,108,49.9,108.3,50,108.7z"/>
		<path fill="#FFFFFF" d="M49.3,205.4h-4l0,0H24l0,0h-2.1c-0.4,0-0.7,0.2-0.9,0.6c-0.1,0.4-0.1,0.8,0.2,1c1,0.7,1,2.1,1,2.1l0,13.7
			l0,13.6c0,0,0,1.4-1,2.1c-0.3,0.2-0.4,0.7-0.2,1c0.1,0.4,0.5,0.6,0.9,0.6H24h21.4h0h0h3.9c0.5,0,0.9-0.4,0.9-0.9v-0.1v-2.4v-4.6
			c0-0.3-0.1-0.6-0.4-0.8c-0.2-0.2-0.6-0.2-0.8-0.1c-0.4,0.1-0.6,0.4-0.9,0.7c-0.3,0.4-0.7,0.9-1.7,1l-15.5,0v-6.3l8.7,0l0.1,0
			c0.5,0,1,0.1,1.3,0.7c0.2,0.4,0.6,0.6,1.1,0.6c0.4-0.1,0.8-0.5,0.8-0.9v-8.3c0-0.4-0.3-0.8-0.8-0.9c-0.4-0.1-0.9,0.2-1.1,0.6
			c-0.3,0.6-0.8,0.7-1.3,0.7l-0.1,0c0,0-0.1,0-0.1,0h-8.6v-6.4l15.5,0c1,0.1,1.4,0.5,1.7,1c0.2,0.3,0.5,0.6,0.9,0.7
			c0.3,0.1,0.6,0,0.8-0.1c0.2-0.2,0.4-0.5,0.4-0.8v-4.6v-2.4v-0.1C50.3,205.8,49.8,205.4,49.3,205.4z"/>
		<path fill="#FFFFFF" d="M53.9,299.4c-2.2-1.8-4.4-8.2-4.5-8.3L41.8,271c-0.8-2.1,0.2-2.9,0.3-3l0,0c0.4-0.2,0.6-0.6,0.4-1.1
			c-0.1-0.4-0.5-0.7-0.9-0.7H31.3c-0.4,0-0.8,0.3-0.9,0.7c-0.1,0.4,0.1,0.8,0.4,1l0,0c0.1,0.1,1.2,0.8,0.4,3l-7.7,20.2
			c0,0.1-2.3,6.4-4.4,8.2c-0.3,0.3-0.4,0.7-0.3,1c0.1,0.4,0.5,0.6,0.9,0.6h10.5c0.5,0,0.9-0.4,0.9-0.9c0-0.4-0.3-0.8-0.7-0.9l-0.1,0
			c-0.2-0.2-0.8-0.4-0.3-1.9l1.8-4.3h10l1.8,4.3l0,0c0.5,1.4-0.1,1.7-0.3,1.9l0,0c-0.5,0.1-0.7,0.5-0.7,1c0,0.5,0.4,0.9,0.9,0.9h9.9
			c0.4,0,0.7-0.3,0.9-0.6C54.4,300.1,54.3,299.7,53.9,299.4z M33.9,286.3l2.7-6.8l2.7,6.8H33.9z"/>
		<path fill="#FFFFFF" d="M54.2,176.6c0,0-2-0.6-2.8-2.2l-3.3-6.8l-0.9-2.1l0.1-0.1c1.6-1.1,2.7-2.4,3.4-3.9
			c2.9-6.3,0.5-11.5-0.6-13l0,0c0,0,0,0,0,0l0-0.1c-3.3-4.4-9-4.7-10.1-4.7c-0.2,0-0.3,0-0.3,0h-17c-0.4,0-0.7,0.2-0.9,0.6
			c-0.1,0.4-0.1,0.8,0.2,1c1,0.7,1,2.1,1,2.1l0,26.6c0,0.6-0.1,2.2-1.2,2.6c-0.4,0.2-0.7,0.6-0.6,1c0.1,0.5,0.5,0.8,0.9,0.8l10.6,0
			c0.5,0,0.9-0.3,0.9-0.8c0.1-0.5-0.2-0.9-0.6-1c-1-0.4-1.2-2-1.2-2.6l0-6.2h7.2l3.6,7.9c0,0,0.3,0.7-0.2,0.9
			c-0.4,0.2-0.8,0.5-0.7,1c0.1,0.5,0.5,0.8,0.9,0.8h11.5c0.5,0,0.9-0.4,0.9-0.9C55,177.1,54.7,176.7,54.2,176.6z M43.6,156.1
			c0,2.4-2,4.4-4.4,4.4h-7.6V151h7.6c2.4,0,4.4,2,4.4,4.4V156.1z"/>
		<path fill="#FFFFFF" d="M49.3,391.6h-4l0,0H24l0,0h-2.1c-0.4,0-0.7,0.2-0.9,0.6c-0.1,0.4-0.1,0.8,0.2,1c1,0.7,1,2.1,1,2.1V409
			v13.6c0,0,0,1.4-1,2.1c-0.3,0.2-0.4,0.7-0.2,1c0.1,0.4,0.5,0.6,0.9,0.6H24h21.4h0h0h3.9c0.5,0,0.9-0.4,0.9-0.9v-0.1v-2.4v-4.6
			c0-0.3-0.1-0.6-0.4-0.8c-0.2-0.2-0.6-0.2-0.8-0.1c-0.4,0.1-0.6,0.4-0.9,0.7c-0.3,0.4-0.7,0.9-1.7,1l-15.5,0v-6.3l8.7,0l0.1,0
			c0.5,0,1,0.1,1.3,0.7c0.2,0.4,0.6,0.7,1.1,0.6c0.4-0.1,0.8-0.5,0.8-0.9v-8.3c0-0.4-0.3-0.8-0.8-0.9c-0.4-0.1-0.9,0.2-1.1,0.6
			c-0.3,0.6-0.8,0.7-1.3,0.7l-0.1,0c0,0-0.1,0-0.1,0h-8.6v-6.4l15.5,0c1,0.1,1.4,0.5,1.7,1c0.2,0.3,0.5,0.6,0.9,0.7
			c0.3,0.1,0.6,0,0.8-0.1c0.2-0.2,0.4-0.5,0.4-0.8V395v-2.4v-0.1C50.3,392,49.8,391.6,49.3,391.6z"/>
		<path fill="#FFFFFF" d="M52.7,487.2c0,0-2-0.6-2.8-2.2l-3.3-6.8l-0.9-2.1l0.1-0.1c1.6-1.1,2.7-2.4,3.4-3.9
			c2.9-6.3,0.5-11.5-0.6-13l0,0c0,0,0,0,0,0l0-0.1c-3.3-4.4-9-4.7-10.1-4.7c-0.2,0-0.3,0-0.3,0h-17c-0.4,0-0.7,0.2-0.9,0.6
			c-0.1,0.4-0.1,0.8,0.2,1c1,0.7,1,2.1,1,2.1l0,26.6c0,0.6-0.1,2.2-1.2,2.6c-0.4,0.2-0.7,0.6-0.6,1c0.1,0.5,0.5,0.8,0.9,0.8h10.6
			c0.5,0,0.9-0.3,0.9-0.8c0.1-0.5-0.2-0.9-0.6-1c-1-0.4-1.2-2-1.2-2.6l0-6.2h7.2l3.6,7.9c0,0,0.3,0.7-0.2,0.9
			c-0.4,0.2-0.8,0.5-0.7,1c0.1,0.5,0.5,0.8,0.9,0.8h11.5c0.5,0,0.9-0.4,0.9-0.9S53.2,487.3,52.7,487.2z M42.1,466.7
			c0,2.4-2,4.4-4.4,4.4h-7.6v-9.6h7.6c2.4,0,4.4,2,4.4,4.4V466.7z"/>
		<path fill="#FFFFFF" d="M52.2,518.9c-2.2,1.8-6.1,8.1-6.2,8.2l-5.9,9.2l0,11.4c0,0.6,0.3,2.3,1.2,2.6c0.4,0.1,0.7,0.6,0.6,1
			c-0.1,0.5-0.5,0.8-0.9,0.8h-5.4h-5.1c-0.5,0-0.9-0.3-0.9-0.8c-0.1-0.5,0.2-0.9,0.6-1c0.9-0.3,1.2-2,1.2-2.6l0-11.4l-6.2-9.2
			c0-0.1-3.7-6.4-5.9-8.2c-0.3-0.2-0.4-0.7-0.3-1c0.1-0.4,0.5-0.6,0.9-0.6h10.3c0.4,0,0.8,0.3,0.9,0.7c0.1,0.4-0.1,0.9-0.5,1
			c-0.3,0.2-1,0.6-0.6,1.7l0,0l5.7,8.6l5.7-8.6l0,0c0.4-1.1-0.3-1.6-0.6-1.7c-0.4-0.2-0.6-0.6-0.5-1c0.1-0.4,0.5-0.7,0.9-0.7h10.5
			c0.4,0,0.7,0.2,0.9,0.6C52.7,518.3,52.5,518.7,52.2,518.9z"/>
		<path fill="#FFFFFF" d="M19.3,332.2c0-1.3-1-2.1-1-2.1c-0.3-0.3-0.4-0.7-0.2-1c0.1-0.4,0.5-0.6,0.9-0.6l8.1,0c0.1,0,0.1,0,0.2,0
			l0.1,0c0,0,0.1,0,0.1,0l0,0c0,0,0,0,0,0c0,0,0,0,0.1,0l0,0c0,0,0,0,0,0c0,0,0.1,0,0.1,0.1c0,0,0,0,0.1,0.1l8.8,13.1l8.5-12.8
			c0.3-0.6,0.7-0.7,1.2-0.7h7.9c0.4,0,0.7,0.2,0.9,0.6c0.1,0.4,0.1,0.8-0.2,1c-1,1-1,1.9-1,2c0,0,0,0,0,0l0,26.7
			c0,0.6,0.3,2.3,1.2,2.6c0.4,0.1,0.7,0.6,0.6,1c-0.1,0.5-0.5,0.8-0.9,0.8H44.1c-0.5,0-0.8-0.3-0.9-0.8c-0.1-0.5,0.2-0.9,0.6-1
			c0.9-0.3,1.2-2,1.2-2.6l0-14.9l-7.7,11.2c0,0,0,0,0,0l0,0c0,0-0.1,0.1-0.1,0.1c0,0,0,0,0,0c0,0-0.1,0.1-0.1,0.1c0,0-0.1,0-0.1,0
			l-0.1,0c0,0,0,0-0.1,0c-0.1,0-0.1,0-0.2,0c-0.1,0-0.1,0-0.2,0c0,0-0.1,0-0.1,0l-0.1,0c0,0,0,0-0.1,0c-0.1,0-0.1-0.1-0.1-0.1
			c0,0,0,0,0,0l0,0c0,0-0.1-0.1-0.1-0.1L28,343.8l0,15.1c0,0.6,0.3,2.3,1.2,2.6c0.4,0.1,0.7,0.6,0.6,1c-0.1,0.5-0.5,0.8-0.9,0.8
			l-10.6,0c-0.5,0-0.9-0.3-0.9-0.8c-0.1-0.5,0.2-0.9,0.6-1c0.9-0.3,1.2-2,1.2-2.6V332.2"/>
	</g>
	<g>
		<path fill="#010101" d="M24.5,207.7v30c0.2,0,0.9-0.3,0.9-1.4v-27.2c0,0,0-0.9-0.4-1.2C24.9,207.7,24.7,207.6,24.5,207.7z"/>
		<path fill="#010101" d="M25.1,145.9v30.1c0.2,0,0.9-0.3,0.9-1.4v-27.3c0-0.2-0.1-0.9-0.4-1.2C25.5,146,25.3,145.9,25.1,145.9z"/>
		<path fill="#010101" d="M24.5,393.8v30c0.2,0,0.9-0.3,0.9-1.4v-27.2c0,0,0-0.9-0.4-1.2C24.9,393.9,24.7,393.8,24.5,393.8z"/>
		<path fill="#010101" d="M23.6,456.5v30.1c0.2,0,0.9-0.3,0.9-1.4V458c0-0.2-0.1-0.9-0.4-1.2C24,456.6,23.8,456.5,23.6,456.5z"/>
		<path fill="#010101" d="M21.4,330.7v30.1c0.2,0,0.9-0.3,0.9-1.4v-27.3c0-0.2-0.1-0.9-0.4-1.2C21.8,330.8,21.6,330.7,21.4,330.7z"
			/>
		<path fill="#010101" d="M38.9,86c-3.9,0-6.4,0.9-6.7,1c-7.4,2.5-8.6,10.3-8.7,11.2c-0.4,2.6-0.2,6.3-0.2,6.4v0.1
			c0.1,5.7,4.7,9.3,4.8,9.4c3.8,3.2,9.8,3.3,10.5,3.3h0h0l0.2,0c0.3,0,0.7,0,1-0.1c0-0.1-0.4-0.8-1.5-1c-1.4,0-6.3-0.4-9.5-3
			l-0.1-0.1c0,0-4.3-3.4-4.3-8.6l0-0.1c0-0.2-0.2-3.8,0.2-6.2c0.1-0.8,1.2-8.1,8-10.4c0.3-0.1,2.6-0.9,6.3-0.9c0.3,0,0.7,0,1,0
			c1.9,0,1.9-0.8,1.9-0.8c-0.5,0-0.9-0.1-1.1-0.1C40.1,86,39.5,86,38.9,86z"/>
		<path fill="#010101" d="M45.8,235H32.1c-1.1,0-1.2,0.7-1.2,0.9h16.7C47.6,235.7,47.4,235,45.8,235z"/>
		<path fill="#010101" d="M45.8,207.7H32.1c-1.1,0-1.2,0.7-1.2,0.9h16.7C47.6,208.4,47.4,207.7,45.8,207.7z"/>
		<path fill="#010101" d="M32.1,222.1H38c1.6,0,1.8-0.7,1.8-0.9h-8.9C30.9,221.4,31.1,222.1,32.1,222.1z"/>
		<path fill="#010101" d="M39,288.3h-4.8c-1.1,0-1.2,0.7-1.2,0.9h7.2C40.1,289,40,288.3,39,288.3z"/>
		<path fill="#010101" d="M34.7,269.7c-0.1-0.2-0.2-0.3-0.4-0.3l-10.9,29.3c0,0,0.1,0,0.1,0c0.3,0,0.9-0.1,1.2-1l9.9-26.7
			C34.7,270.8,34.9,270.1,34.7,269.7z"/>
		<path fill="#010101" d="M37.8,276.4l8.6,21.1c0.3,0.7,0.8,1,1.1,1h0.4L38,274.1C37.3,275.1,37.8,276.4,37.8,276.4z"/>
		<path fill="#010101" d="M39.7,148.6c0-0.2-0.1-0.9-1.2-0.9h-2.8h-2.8c-1.1,0-1.2,0.7-1.2,0.9h4H39.7z"/>
		<path fill="#010101" d="M44.3,151c1,1.1,1.6,2.6,1.6,4.3v0.8c0,3.6-2.9,6.5-6.5,6.5h-6.1c-1.6,0-1.8,1-1.8,1h7.9
			c4.1,0,7.5-3.4,7.5-7.5v-0.8c0-1.3-0.3-2.6-1-3.6C45.5,150.8,44.6,151,44.3,151z"/>
		<path fill="#010101" d="M41.2,167.8l3.4,7.5l0,0c0.5,0.9,1.3,0.8,1.3,0.8l0.1,0l-3.4-7.3C42.1,167.7,41.2,167.8,41.2,167.8z"/>
		<path fill="#010101" d="M45.8,421.2H32.1c-1.1,0-1.2,0.7-1.2,0.9h16.7C47.6,421.9,47.4,421.2,45.8,421.2z"/>
		<path fill="#010101" d="M45.8,393.8H32.1c-1.1,0-1.2,0.7-1.2,0.9h16.7C47.6,394.5,47.4,393.8,45.8,393.8z"/>
		<path fill="#010101" d="M32.1,408.2H38c1.6,0,1.8-0.7,1.8-0.9h-8.9C30.9,407.5,31.1,408.2,32.1,408.2z"/>
		<path fill="#010101" d="M38.2,459.1c0-0.2-0.1-0.9-1.2-0.9h-2.8h-2.8c-1.1,0-1.2,0.7-1.2,0.9h4H38.2z"/>
		<path fill="#010101" d="M42.8,461.6c1,1.1,1.6,2.6,1.6,4.3v0.8c0,3.6-2.9,6.5-6.5,6.5h-6.1c-1.6,0-1.8,1-1.8,1H38
			c4.1,0,7.5-3.4,7.5-7.5v-0.8c0-1.3-0.3-2.6-1-3.6C44,461.4,43,461.6,42.8,461.6z"/>
		<path fill="#010101" d="M39.7,478.4l3.4,7.5l0,0c0.5,0.9,1.3,0.8,1.3,0.8l0.1,0l-3.4-7.3C40.6,478.3,39.7,478.4,39.7,478.4z"/>
		<path fill="#010101" d="M23.6,519.7h-0.4l10.7,16.1v13.8c0.2-0.1,0.9-0.4,0.9-1.5v-12.7l-9.9-15C24.5,519.9,24,519.8,23.6,519.7z"
			/>
		<path fill="#010101" d="M44.4,520.3l-6.8,10.3c-0.6,0.8-0.1,1.6,0,1.8l0,0l8.4-12.7C44.9,519.8,44.5,520.2,44.4,520.3z"/>
		<path fill="#010101" d="M48.3,340.4C48.3,340.4,48.3,340.4,48.3,340.4l0.1,20.4c-0.2,0-0.9-0.3-0.9-1.4v-17.6c0,0,0-0.9,0.4-1.2
			C47.9,340.5,48.1,340.4,48.3,340.4z"/>
		<path fill="#010101" d="M28,338.1c0,0-0.6,0.8,0.5,2.3l0,0l8.1,11.9c0.1-0.1,0.6-0.7,0-1.6L28,338.1z"/>
		<path fill="#010101" d="M48,331.1c-0.2-0.1-0.3-0.1-0.5-0.1c-0.5,0.1-1,0.8-1,0.8l-8,12.2c-0.6,0.9-0.1,1.5,0,1.6L48,331.1
			C48,331.1,48,331.1,48,331.1z"/>
	</g>
</g>
</svg>
