<?xml version="1.0" encoding="utf-8"?>
<!-- Generator: Adobe Illustrator 18.1.1, SVG Export Plug-In . SVG Version: 6.00 Build 0)  -->
<svg version="1.1" id="Layer_1" xmlns="http://www.w3.org/2000/svg" xmlns:xlink="http://www.w3.org/1999/xlink" x="0px" y="0px"
	 viewBox="0 0 108 29.3" enable-background="new 0 0 108 29.3" xml:space="preserve">
<g>
	<path d="M86.3,7l0.1-0.4c0-0.2-0.1-0.3-0.3-0.4c-0.2-0.2-0.4-0.4-0.7-0.6C84.8,5,84.3,4,84.3,3.1c0-1,0.2-1.6,0.7-2.4
		c0.1-0.1,0.2-0.4,0.4-0.5c0.1-0.1,0.1-0.1,0.2-0.1c0.1,0,0.2,0.2,0.2,0.2L86.1,1c0.3,0.5,0.7,1.3,0.7,1.9l-0.2,1.3
		c0,0.2-0.1,0.7-0.1,0.9c0,0.1,0.1,0.3,0.2,0.2c0.1,0,0.3-0.3,0.4-0.4c0.2-0.3,0.5-0.7,0.8-0.9c0.5-0.5,1.4-0.9,2-1.1
		c0.3-0.1,1.1-0.2,1.3-0.4c0.1-0.1,0.1-0.2,0.2-0.4c0-0.2,0.1-0.4,0.2-0.5c0.4-0.7,1.2-1.2,1.9-1.2c0.6,0,1,0.1,1.5,0.4
		c1.2,0.9,1.4,2.6,0.3,3.6c-0.2,0.2-0.5,0.4-0.8,0.5c-0.8,0.4-1.8,0.2-2.5-0.4C92,4.4,91.8,4.1,91.7,4c-0.2-0.4-0.2-0.6-0.7-0.5
		c-0.3,0.1-0.6,0.2-0.8,0.4c-0.6,0.4-1.2,0.8-1.6,1.4c-0.2,0.3-0.4,0.7-0.5,1c-0.1,0.4-0.2,0.9-0.2,1.3l0,0.3c0.1,0.8,0.3,1.4,0.8,2
		c0.6,0.8,1.5,1.3,2.2,2c0.5,0.5,0.9,1,1.3,1.5c0.1,0.1,0.3,0.5,0.5,0.5c0.1,0,0.2-0.2,0.3-0.3l0.6-0.9c0.4-0.5,1.3-1.2,1.3-1.9
		c0-0.3-0.1-0.5-0.2-0.8c-0.1-0.1-0.2-0.3-0.4-0.4c-0.3-0.2-0.3,0-0.7,0.4c-0.5,0.4-0.9,0.4-1.5,0.4c-0.3,0-0.5-0.1-0.8-0.2
		c-0.2-0.1-0.5-0.3-0.6-0.5c-1.3-1.2-0.9-3.4,0.8-4c0.2-0.1,0.6-0.2,0.8-0.1c1,0.1,1.9,0.7,2.2,1.7c0.1,0.2,0.1,0.5,0.1,0.7
		c0,0.2-0.1,0.3,0,0.4c0.1,0.1,0.3,0.3,0.4,0.4c0.2,0.2,0.3,0.3,0.5,0.5c0.3,0.4,0.3,0.6,0.5,1c0,0.1,0.1,0.3,0.3,0.3
		c0.2,0,0.4-0.4,0.5-0.5c0.2-0.5,0.2-1,0.2-1.5l0-0.5l0-0.4V7.3l0.1-0.8c0.2-1.4,0.6-2.8,1.5-3.9c0.9-1,2.2-1.7,3.4-2.1
		c0.5-0.2,1.4-0.5,1.9-0.5c-0.3,0.6-0.5,1.2-0.5,1.9c0,1,0,1.9-0.6,2.8c-0.9,1.2-2.9,1.3-3.8,2.3c-0.4,0.4-0.7,1.2-0.8,1.7
		c0,0.1-0.1,0.6,0.1,0.6c0.1,0,0.2-0.1,0.2-0.1l0.5-0.4c0.6-0.5,1.3-0.9,1.9-1.3c1.7-1,3.4-1.3,5.4-0.9c0.5,0.1,1.5,0.4,1.8,0.7
		l-0.7,0.7c-0.3,0.3-0.7,0.5-1,0.7c-1,0.5-2.3,0.7-3.4,0.7l-1.2-0.1l-0.9,0c-0.6,0-1.3,0.1-1.8,0.4c-0.2,0.1-0.5,0.4-0.5,0.6
		l0.9-0.1c1,0,1.6,0,2.7,0.3c0.3,0.1,0.9,0.3,1.2,0.5c0.1,0.1,0.5,0.4,0.6,0.4l0.7-0.1c0.4,0,0.5,0,0.9,0.1c0.9,0.3,1.6,1.2,1.6,2.1
		V14c0,0.9-0.7,1.8-1.6,2.1c-1.4,0.5-3.1-0.6-3.1-2.2c0-0.4,0-0.7,0.2-1.1c0.1-0.3,0.3-0.4,0.2-0.6c-0.2-0.4-1-0.7-1.4-0.8
		c-0.6-0.2-0.9-0.2-1.5-0.2c-1.2,0-2.4,0.6-3.1,1.6c-0.9,1.1-1.2,2.5-1.3,3.8c-0.2,1.9,0,3.8,0.2,5.6c0.1,0.9,0.5,2.6,0.9,3.4
		c0.5,0.9,1,1.5,1.7,2.2l0.9,0.8c-0.4,0.2-1.1,0.5-1.5,0.5h-0.6c-0.5,0-1.6-0.3-2-0.5c-0.7-0.3-1.5-0.8-2.3-0.8
		c-1.2,0-2.1,0.7-3.4,0.9c-0.2,0-0.2,0-0.4,0c-0.4,0-0.9-0.1-1.1-0.5c0.4-0.2,0.5-0.2,0.9-0.5c0.3-0.2,0.7-0.6,1-0.9
		c1.4-1.7,1.8-3.8,2.1-5.9l0.1-1.1v-0.3l0-0.5c0-0.7-0.1-1.5-0.2-2.3c-0.3-1.5-1-2.6-2.2-3.5c-0.4-0.2-0.7-0.4-1.2-0.6
		c-0.4-0.1-0.8-0.1-1.2-0.1c-0.7,0-1.8,0.4-2.4,0.7c-0.1,0.1-0.6,0.3-0.7,0.5c0,0.1,0.1,0.3,0.2,0.5c0.2,0.3,0.2,0.6,0.3,0.9
		c0.1,0.9-0.4,1.9-1.3,2.3c-0.3,0.2-0.7,0.3-1,0.3c-0.2,0-0.6-0.1-0.8-0.1c-1.6-0.6-2.2-2.5-1-3.8c0.4-0.4,0.9-0.7,1.4-0.8h0.5
		l0.7,0.1c0.1,0,0.6-0.5,0.7-0.5c0.4-0.3,0.9-0.5,1.3-0.8c0.8-0.4,1.5-0.5,2.4-0.5c0.3,0,0.5,0,0.7,0.1c-0.1-0.2-0.4-0.5-0.6-0.7
		L86.7,10c-0.1-0.1-0.5-0.4-0.6-0.4c-0.5-0.3-1.4-0.7-2-0.7c-1,0-1.3,0.2-2.2,0.4c-0.7,0.2-1,0.1-1.6,0.1c-1.3,0-2.2-0.9-2.9-1.9
		l-0.6-1.3c0.3,0.1,0.4,0.2,0.9,0.2c0.9,0,1.2-0.3,2-0.5c0.6-0.2,0.8-0.2,1.4-0.2c1.4,0,2.8,0.9,3.8,1.7l0.8,0.7
		c0.2,0.2,0.3,0.3,0.5,0.4C86.2,7.9,86.2,7.6,86.3,7"/>
	<path d="M0,17.5l1.6-2.3c1,1,2.4,1.8,4.3,1.8c1.6,0,2.4-0.7,2.4-1.5c0-2.4-7.8-0.7-7.8-5.8c0-2.3,1.9-4.1,5.1-4.1
		c2.2,0,3.9,0.6,5.3,1.9L9.3,9.7c-1.1-1-2.6-1.5-3.9-1.5c-1.2,0-1.9,0.5-1.9,1.3c0,2.1,7.8,0.7,7.8,5.7c0,2.5-1.8,4.3-5.4,4.3
		C3.1,19.6,1.3,18.7,0,17.5"/>
	<path d="M17.8,11.3c-1.6,0-2.3,1.1-2.4,2.1h4.9C20.1,12.5,19.5,11.3,17.8,11.3 M12.6,14.4c0-2.9,2.1-5.2,5.2-5.2c3,0,5,2.2,5,5.5
		v0.6h-7.4c0.2,1.2,1.2,2.2,2.9,2.2c0.8,0,2-0.4,2.6-1l1.2,1.7c-1,0.9-2.6,1.4-4.1,1.4C14.9,19.6,12.6,17.6,12.6,14.4"/>
	<polygon points="33.6,19.4 31.5,12.6 29.3,19.4 26.5,19.4 23.5,9.4 26.2,9.4 28.1,16.1 30.3,9.4 32.6,9.4 34.8,16.1 36.6,9.4 
		39.4,9.4 36.4,19.4 	"/>
	<path d="M46.8,17v-1.2c-0.4-0.6-1.3-0.9-2.1-0.9c-1,0-1.9,0.6-1.9,1.5c0,0.9,0.8,1.5,1.9,1.5C45.6,17.8,46.4,17.6,46.8,17
		 M46.8,19.4v-1.1c-0.7,0.8-1.9,1.3-3.2,1.3c-1.6,0-3.4-1.1-3.4-3.3c0-2.4,1.9-3.2,3.4-3.2c1.3,0,2.5,0.4,3.2,1.2v-1.3
		c0-1-0.9-1.7-2.2-1.7c-1.1,0-2,0.4-2.9,1.2l-1-1.8c1.2-1.1,2.8-1.6,4.4-1.6c2.3,0,4.4,0.9,4.4,3.8v6.4H46.8z"/>
	<path d="M51.5,19.4v-10h2.6v1.3c0.7-0.9,1.9-1.6,3.2-1.6v2.6c-0.2,0-0.4-0.1-0.7-0.1c-0.9,0-2,0.5-2.5,1.1v6.6H51.5z"/>
	<path d="M65.8,16.2v-3.5c-0.4-0.7-1.4-1.1-2.2-1.1c-1.5,0-2.5,1.2-2.5,2.9c0,1.7,1,2.9,2.5,2.9C64.4,17.3,65.3,16.8,65.8,16.2
		 M65.8,19.4v-1.3c-0.8,1-1.9,1.5-3.1,1.5c-2.5,0-4.4-1.9-4.4-5.2c0-3.2,1.9-5.2,4.4-5.2c1.2,0,2.3,0.5,3.1,1.5V5.6h2.6v13.8H65.8z"
		/>
	<path d="M0,26.3C0,24.9,1,24,2.4,24c0.9,0,1.5,0.5,1.8,1l-0.7,0.4c-0.2-0.4-0.7-0.7-1.1-0.7c-0.9,0-1.6,0.7-1.6,1.6
		c0,0.9,0.7,1.6,1.6,1.6c0.5,0,0.9-0.3,1.1-0.7l0.7,0.3c-0.3,0.5-0.9,1-1.8,1C1,28.7,0,27.7,0,26.3"/>
	<path d="M8.8,26.3c0-0.9-0.6-1.6-1.5-1.6c-0.9,0-1.5,0.7-1.5,1.6c0,0.9,0.6,1.6,1.5,1.6C8.2,28,8.8,27.3,8.8,26.3 M4.9,26.3
		c0-1.4,1-2.4,2.3-2.4c1.4,0,2.3,1,2.3,2.4c0,1.4-1,2.4-2.3,2.4C5.9,28.7,4.9,27.7,4.9,26.3"/>
	<polygon points="14.3,24.1 13,27.2 11.8,24.1 10.7,24.1 10.7,28.6 11.5,28.6 11.5,25.1 12.9,28.6 13.2,28.6 14.6,25.1 14.6,28.6 
		15.4,28.6 15.4,24.1 	"/>
	<polygon points="20.4,24.1 19.2,27.2 17.9,24.1 16.8,24.1 16.8,28.6 17.6,28.6 17.6,25.1 19,28.6 19.3,28.6 20.7,25.1 20.7,28.6 
		21.5,28.6 21.5,24.1 	"/>
	<path d="M22.8,26.8v-2.8h0.8v2.7c0,0.7,0.4,1.2,1.2,1.2c0.8,0,1.2-0.5,1.2-1.2v-2.7h0.8v2.8c0,1.1-0.6,1.9-2,1.9
		C23.4,28.7,22.8,27.9,22.8,26.8"/>
	<polygon points="31.1,24.1 31.1,27.2 28.8,24.1 28,24.1 28,28.6 28.8,28.6 28.8,25.4 31.2,28.6 31.9,28.6 31.9,24.1 	"/>
	<rect x="33.2" y="24.1" width="0.8" height="4.6"/>
	<polygon points="35,24.1 35,24.8 36.3,24.8 36.3,28.6 37.1,28.6 37.1,24.8 38.5,24.8 38.5,24.1 	"/>
	<polygon points="42.6,24.1 41.4,26 40.1,24.1 39.2,24.1 41,26.7 41,28.6 41.8,28.6 41.8,26.7 43.5,24.1 	"/>
	<path d="M46.2,26.3c0-1.4,1-2.4,2.4-2.4c0.9,0,1.5,0.5,1.8,1l-0.7,0.4c-0.2-0.4-0.7-0.7-1.1-0.7c-0.9,0-1.6,0.7-1.6,1.6
		c0,0.9,0.7,1.6,1.6,1.6c0.5,0,0.9-0.3,1.1-0.7l0.7,0.3c-0.3,0.5-0.9,1-1.8,1C47.2,28.7,46.2,27.7,46.2,26.3"/>
	<path d="M55,26.3c0-0.9-0.6-1.6-1.5-1.6c-0.9,0-1.5,0.7-1.5,1.6c0,0.9,0.6,1.6,1.5,1.6C54.4,28,55,27.3,55,26.3 M51.1,26.3
		c0-1.4,1-2.4,2.3-2.4c1.4,0,2.3,1,2.3,2.4c0,1.4-1,2.4-2.3,2.4C52.1,28.7,51.1,27.7,51.1,26.3"/>
	<rect x="56.7" y="26" width="1.6" height="0.6"/>
	<path d="M63,26.3c0-0.9-0.6-1.6-1.5-1.6c-0.9,0-1.5,0.7-1.5,1.6c0,0.9,0.6,1.6,1.5,1.6C62.4,28,63,27.3,63,26.3 M59.2,26.3
		c0-1.4,1-2.4,2.3-2.4c1.4,0,2.3,1,2.3,2.4c0,1.4-1,2.4-2.3,2.4C60.2,28.7,59.2,27.7,59.2,26.3"/>
	<path d="M67.6,25.5c0-0.4-0.3-0.7-0.8-0.7h-1.1v1.4h1.1C67.3,26.2,67.6,25.9,67.6,25.5 M64.9,28.6v-4.6h2c1,0,1.5,0.6,1.5,1.4
		c0,0.8-0.5,1.4-1.5,1.4h-1.2v1.7H64.9z"/>
</g>
</svg>
